<svg version="1.0" xmlns="http://www.w3.org/2000/svg" width="512.000000pt" height="512.000000pt" viewBox="0 0 512.000000 512.000000" preserveAspectRatio="xMidYMid meet"><g transform="translate(0.000000,512.000000) scale(0.100000,-0.100000)" fill="#000000" stroke="none"><path d="M1390 4743 c-102 -11 -271 -47 -362 -77 -549 -180 -852 -622 -972 -1416 -47 -314 -49 -360 -53 -1652 l-4 -1228 1190 0 1191 0 0 1005 0 1005-641 0 -641 0 5 418 c5 439 9 479 53 570 50 103 131 138 352 155 l142 11 0 608 0 608 -112 -2 c-62 0 -129 -3 -148 -5z"/><path d="M4050 4731 c-324 -50 -554 -154 -752 -340 -259 -243 -416 -601 -496 -1131 -53 -347 -62 -614 -62 -1872 l0 -1018 1190 0 1190 0 0 1005 0 1005 -641 0 -642 0 6 408 c6 442 12 498 63 592 52 96 144 132 367 145 l117 7 0 609 0 609 -112 -1 c-62 0 -165 -9 -228 -18z"/></g></svg>
